HIERARCHY
ROOT hip
{
	OFFSET 0.000000 0.000000 0.000000 
	CHANNELS 6 Xposition Yposition Zposition Xrotation Zrotation Yrotation
	JOINT abdomen
	{
		OFFSET 0.000000 3.402643 0.000000 
		CHANNELS 3 Xrotation Zrotation Yrotation
		JOINT chest
		{
			OFFSET 0.000000 8.438565 -0.680529 
			CHANNELS 3 Xrotation Zrotation Yrotation
			JOINT neck
			{
				OFFSET 0.000000 10.207942 -0.272212 
				CHANNELS 3 Xrotation Zrotation Yrotation
				JOINT head
				{
					OFFSET 0.000000 3.130431 0.000000 
					CHANNELS 3 Xrotation Zrotation Yrotation
					End Site
					{
						OFFSET 0.000000 3.130435 0.000000 
					}
				}
			}
			JOINT lCollar
			{
				OFFSET 3.470700 6.669187 -0.816635 
				CHANNELS 3 Yrotation Zrotation Xrotation
				JOINT lShldr
				{
					OFFSET 3.198488 0.000000 0.000000 
					CHANNELS 3 Zrotation Yrotation Xrotation
					JOINT lForeArm
					{
						OFFSET 10.139888 0.000000 0.000000 
						CHANNELS 3 Yrotation Zrotation Xrotation
						JOINT lHand
						{
							OFFSET 8.370511 0.000000 0.000000 
							CHANNELS 3 Zrotation Yrotation Xrotation
							End Site
							{
								OFFSET 4.083176 0.000000 0.000000 
							}
						}
					}
				}
			}
			JOINT rCollar
			{
				OFFSET -3.470700 6.669187 -0.816635 
				CHANNELS 3 Yrotation Zrotation Xrotation
				JOINT rShldr
				{
					OFFSET -3.198488 0.000000 0.000000 
					CHANNELS 3 Zrotation Yrotation Xrotation
					JOINT rForeArm
					{
						OFFSET -10.139888 0.000000 0.000000 
						CHANNELS 3 Yrotation Zrotation Xrotation
						JOINT rHand
						{
							OFFSET -8.370511 0.000000 0.000000 
							CHANNELS 3 Zrotation Yrotation Xrotation
							End Site
							{
								OFFSET -4.083176 0.000000 0.000000 
							}
						}
					}
				}
			}
		}
	}
	JOINT lThigh
	{
		OFFSET 5.308129 -1.633274 1.361059 
		CHANNELS 3 Xrotation Zrotation Yrotation
		JOINT lShin
		{
			OFFSET -2.041588 -20.007561 0.000000 
			CHANNELS 3 Xrotation Zrotation Yrotation
			JOINT lFoot
			{
				OFFSET 0.000000 -19.190928 -1.224953 
				CHANNELS 3 Xrotation Yrotation Zrotation
				End Site
				{
					OFFSET 0.000000 -2.449906 4.627600 
				}
			}
		}
	}
	JOINT rThigh
	{
		OFFSET -5.308129 -1.633274 1.361059 
		CHANNELS 3 Xrotation Zrotation Yrotation
		JOINT rShin
		{
			OFFSET 2.041588 -20.007561 0.000000 
			CHANNELS 3 Xrotation Zrotation Yrotation
			JOINT rFoot
			{
				OFFSET 0.000000 -19.190928 -1.224953 
				CHANNELS 3 Xrotation Yrotation Zrotation
				End Site
				{
					OFFSET 0.000000 -2.449906 4.627600 
				}
			}
		}
	}
}
MOTION
Frames: 6
Frame Time: 0.011111
9.853248 51.379856 56.211147 -2.672657 11.472258 -24.287436 59.382633 8.172913 1.952483 -31.585386 11.300459 -2.136502 -15.985028 2.829845 2.942537 7.680814 -12.730544 6.005030 2.656661 -4.973740 1.830115 -71.338898 -8.335974 18.588640 -62.840275 9.427896 13.684652 8.524705 12.647240 -31.780651 -4.438679 -1.473473 2.444106 64.477997 15.351597 -27.073826 89.860382 -5.699199 35.052933 -8.534408 -12.637552 85.511581 6.324921 -11.888069 3.739274 40.432587 -4.652030 -6.135900 6.470415 -13.449133 -2.162117 -32.097347 -10.507291 -5.498087 40.584221 4.599509 6.149951 -8.519257 -2.915500 2.744895 
9.807259 51.285732 55.657749 -2.751008 11.204326 -23.910673 58.944176 8.168705 1.740520 -31.480581 11.463205 -2.171955 -15.905189 2.543961 2.954577 7.636024 -12.306639 5.953117 2.656661 -4.973740 1.830115 -71.146812 -8.525585 18.172541 -62.915318 9.431408 13.720999 8.524705 12.647240 -31.985731 -4.438679 -1.473473 2.444106 64.078117 15.513733 -27.155865 90.186668 -5.949057 35.265503 -8.534408 -12.637552 85.091660 7.173084 -12.003104 3.038739 39.187679 -4.733594 -5.986557 6.600208 -13.235232 -2.150137 -31.871655 -10.164679 -5.926709 39.912514 4.657667 6.044129 -7.957984 -3.208370 2.726987 
9.719879 51.214909 55.081360 -2.671303 10.307985 -23.325047 58.740051 8.543028 2.290264 -31.543678 11.568651 -2.134497 -15.955930 2.472797 2.872518 7.960885 -12.323469 5.736907 2.656661 -4.973740 1.830115 -70.779015 -8.757893 18.249105 -62.926094 9.431628 13.721790 8.524705 12.647240 -32.181049 -4.438679 -1.473473 2.444106 63.553600 15.543631 -27.452614 90.580925 -6.232646 35.510170 -8.534408 -12.637552 84.710800 7.595629 -11.286072 2.472309 38.385201 -4.801773 -5.890330 6.671358 -12.689199 -2.119605 -31.117092 -9.031288 -6.356102 38.912609 4.742282 5.926711 -7.584732 -3.929939 2.672282 
9.718347 51.113728 54.497303 -2.786880 9.721421 -22.782495 58.588268 8.845110 2.822344 -32.134106 11.626731 -2.137338 -15.293043 2.031047 2.811677 7.996097 -12.305701 5.421608 2.656661 -4.973740 1.830115 -70.539780 -8.577240 18.544687 -63.085293 9.434491 13.794999 8.524705 12.647240 -32.337296 -4.438679 -1.473473 2.444106 62.486710 14.909342 -27.885180 91.087929 -6.576818 35.820145 -8.534408 -12.637552 84.857277 8.055696 -10.975451 1.663029 37.612221 -4.860237 -5.802545 6.428061 -11.378695 -2.219792 -30.593552 -8.319773 -6.654259 37.913322 4.804181 5.820835 -7.236775 -4.653769 2.609442 
9.682782 51.005199 53.873386 -2.804052 8.897931 -22.472673 58.899780 8.947182 3.108762 -32.149807 11.798320 -2.122695 -16.074055 2.351371 2.814095 8.643493 -12.379170 5.494136 2.656661 -4.973740 1.830115 -70.355972 -9.167073 18.090956 -63.426285 9.442626 13.953852 8.524705 12.647240 -32.415417 -4.438679 -1.473473 2.444106 61.526127 15.452545 -27.696541 91.587471 -6.894606 36.113331 -8.534408 -12.637552 84.876816 8.219133 -10.386023 1.186534 37.166687 -4.889384 -5.743204 5.361972 -11.140944 -2.468839 -30.016066 -7.176885 -6.769380 36.794724 4.872763 5.685975 -6.775592 -5.586404 2.537882 
9.656109 50.874897 53.216667 -2.804858 8.581072 -21.821777 58.751534 9.022468 2.797654 -31.840355 11.800486 -2.166267 -16.920242 2.990588 2.668812 9.186089 -12.616841 5.381834 2.656661 -4.973740 1.830115 -69.735634 -10.009913 18.043684 -63.661480 9.448888 14.063322 8.524705 12.647240 -32.044323 -4.438679 -1.473473 2.444106 61.091766 17.315018 -28.442286 91.659203 -6.939251 36.155075 -8.534408 -12.637552 84.085793 8.183411 -10.185374 0.661887 37.038570 -4.889546 -5.732059 3.731664 -12.545815 -2.877737 -29.874643 -6.716167 -6.791616 35.752335 4.950490 5.570175 -6.403388 -6.518286 2.501103 
